<?xml version="1.0" encoding="UTF-8"?>
<!DOCTYPE svg PUBLIC "-//W3C//DTD SVG 1.1//EN" "http://www.w3.org/Graphics/SVG/1.1/DTD/svg11.dtd">
<!-- Creator: CorelDRAW -->
<svg xmlns="http://www.w3.org/2000/svg" xml:space="preserve" width="195.213mm" height="43.0787mm" style="shape-rendering:geometricPrecision; text-rendering:geometricPrecision; image-rendering:optimizeQuality; fill-rule:evenodd; clip-rule:evenodd"
viewBox="0 0 198.939 43.9008"
 xmlns:xlink="http://www.w3.org/1999/xlink">
 <defs>
  <style type="text/css">
   <![CDATA[
    .fil0 {fill:#003454}
   ]]>
  </style>
 </defs>
 <g id="Layer_x0020_1">
  <metadata id="CorelCorpID_0Corel-Layer"/>
  <g id="_184122104">
   <path id="_77383728" class="fil0" d="M7.57607 28.8323c-0.127487,0 -0.331814,0.0272095 -0.613386,0.0817305 -0.281777,0.0544191 -0.495071,0.0818324 -0.640392,0.0818324 -0.817509,0 -1.36251,-0.19974 -1.63492,-0.599629 -0.200148,-0.290337 -0.299916,-0.853686 -0.299916,-1.68964l0 -8.9658 3.07957 0 0 -1.22626 -3.07957 0 0 -3.57005 -1.66233 0.73588 0 2.83417 -2.72513 0 0 1.22626 2.72513 0 0 9.70168c0,1.94411 0.971798,2.9159 2.9159,2.9159 0.490587,0 1.13526,-0.036687 1.93504,-0.10894l0 -1.41714zm15.9685 -10.4375c-1.03559,-1.41714 -2.48921,-2.1256 -4.36035,-2.1256 -2.14385,0 -3.72444,0.935824 -4.74169,2.80696l0 -8.50262 -1.66243 0 0 13.1508c0.0263943,2.49971 0.625615,4.01733 1.64225,4.98536 1.16644,1.111 2.60906,1.75772 4.40764,1.75772 1.92556,0 3.45174,-0.744848 4.57833,-2.23465 0.999008,-1.36251 1.49877,-3.04288 1.49877,-5.04161 0,-1.9439 -0.454307,-3.54274 -1.36251,-4.79632m-1.41704 8.9658c-0.781433,1.19905 -1.94431,1.79868 -3.48832,1.79868 -1.47156,0 -2.57105,-0.617463 -3.29745,-1.8532 -0.599425,-0.998906 -0.899239,-2.28907 -0.899239,-3.86966 0,-1.61698 0.34496,-2.95208 1.03549,-4.00602 0.799267,-1.23533 1.96225,-1.8531 3.48822,-1.8531 1.45332,0 2.54343,0.63601 3.27034,1.90772 0.599527,1.03539 0.899341,2.33441 0.899341,3.89677 0,1.61729 -0.336603,2.94332 -1.00838,3.97881m17.6699 -8.94348c-0.979339,-1.42957 -2.60834,-2.14792 -4.67046,-2.14792 -1.88969,0 -3.70202,0.717944 -4.79193,2.15281 -0.981072,1.29026 -1.47176,2.90704 -1.47176,4.85084 0,2.03501 0.490689,3.67003 1.47176,4.90526 1.05343,1.34468 2.57043,2.01666 4.55092,2.01666 1.99832,0 3.53337,-0.853686 4.60544,-2.56167 0,2.25309 -0.190467,3.81525 -0.572317,4.68727 -0.635908,1.45332 -1.9439,2.18033 -3.92408,2.18033 -2.41655,0 -3.6155,-0.926755 -3.59726,-2.77975l-1.68954 0c0,2.67071 1.80755,4.00581 5.42295,4.00581 1.96235,0 3.42453,-0.499759 4.38756,-1.49877 0.799267,-0.83575 1.29892,-2.08056 1.49887,-3.73341 0.10894,-0.781026 0.163563,-2.33431 0.163563,-4.66007l0 -1.86829c0,-1.21689 -0.0736797,-3.63619 -1.38381,-5.54911m-1.23238 8.69829c-0.781128,1.23564 -1.93483,1.853 -3.46101,1.853 -1.4898,0 -2.62536,-0.581183 -3.40639,-1.74396 -0.672289,-1.01725 -1.00828,-2.30721 -1.00828,-3.86987 0,-1.59843 0.335992,-2.9159 1.00828,-3.95139 0.781026,-1.21709 1.92556,-1.82589 3.4336,-1.82589 1.399,0 2.50735,0.599527 3.32486,1.79868 0.726301,1.05373 1.09011,2.30731 1.09011,3.76062 0,1.61729 -0.327228,2.94332 -0.981174,3.97881z"/>
   <path id="_184120664" class="fil0" d="M85.9226 25.3145c-0.389392,-0.518917 -0.959977,-0.778478 -1.71094,-0.778478 -0.669742,0 -1.2231,0.280044 -1.65988,0.839929l0 -2.96064 -1.49591 0 0 6.02411c0,0.587298 -0.0136557,1.04843 -0.0406614,1.3829l1.47512 0 0.0308782 -0.686353c0.443709,0.519223 0.976384,0.778682 1.59802,0.778682 0.765026,0 1.35569,-0.273216 1.77239,-0.819649 0.368908,-0.498536 0.55326,-1.14046 0.55326,-1.92607 0,-0.77165 -0.173958,-1.38972 -0.522382,-1.85443m-2.25411 3.6473c-0.416601,0 -0.724059,-0.194747 -0.921761,-0.583833 -0.157041,-0.307458 -0.235816,-0.693283 -0.235816,-1.15768 0,-0.478052 0.0887622,-0.870909 0.266388,-1.17826 0.218593,-0.375736 0.546433,-0.563553 0.983619,-0.563553 0.416703,0 0.723651,0.191384 0.922169,0.573744 0.149907,0.293802 0.225319,0.672799 0.225319,1.13709 0,1.18183 -0.41334,1.77249 -1.23992,1.77249m5.7781 -6.54649l-1.55706 0 0 1.18835 1.55706 0 0 -1.18835zm109.492 5.86778l0 -0.0535019c-0.00764313,-0.52656 -0.257013,-0.914322 -0.747804,-1.16318 -0.19811,-0.102418 -0.679933,-0.245905 -1.44455,-0.430155 -0.662608,-0.157143 -0.993708,-0.389392 -0.993708,-0.696747 0,-0.191078 0.0851954,-0.338132 0.255994,-0.440448 0.143487,-0.0886603 0.317445,-0.133194 0.522688,-0.133194 0.50516,-0.000101908 0.768287,0.276579 0.788771,0.829738l1.46503 0c-0.0614507,-1.11314 -0.806095,-1.66997 -2.23363,-1.66997 -0.593922,0 -1.08573,0.10945 -1.47512,0.327941 -0.491402,0.273318 -0.737715,0.686353 -0.737715,1.23972 0,0.525847 0.239077,0.915239 0.717231,1.16787 0.1709,0.0887622 0.635297,0.228886 1.39349,0.420066 0.655475,0.163971 0.983212,0.406411 0.983212,0.72732 0.000101908,0.211766 -0.0851954,0.379099 -0.2563,0.502001 -0.170391,0.123003 -0.368501,0.184454 -0.593922,0.184454 -0.566814,0 -0.86031,-0.307356 -0.881202,-0.922067l-1.50559 0c0,1.18173 0.771548,1.77239 2.31526,1.77239 0.6622,0 1.20507,-0.112711 1.6286,-0.33803 0.524828,-0.289012 0.791115,-0.730581 0.799267,-1.3242zm-109.523 -3.63436l-1.49591 0 0 5.17358 1.49591 0 0 -5.17358zm6.21661 0.578738c-0.495377,-0.474689 -1.17307,-0.712034 -2.03338,-0.712034 -0.853788,0 -1.54055,0.239179 -2.05926,0.717129 -0.519121,0.478154 -0.778682,1.14066 -0.778682,1.98772 0,0.860412 0.249166,1.52801 0.747702,2.0027 0.498739,0.474893 1.18173,0.712136 2.04887,0.712136 0.860718,0 1.54554,-0.239077 2.05427,-0.717231 0.508727,-0.478052 0.763294,-1.14382 0.763294,-1.99761 0,-0.85389 -0.247739,-1.51792 -0.74281,-1.99282m-1.07055 3.22204c-0.218695,0.403048 -0.553362,0.604418 -1.0042,0.604418 -0.826477,0 -1.23921,-0.60768 -1.23921,-1.82355 0,-1.20894 0.412729,-1.81326 1.23921,-1.81326 0.450843,0 0.78551,0.19811 1.0041,0.594126 0.170798,0.314285 0.256401,0.720594 0.256401,1.21913 0,0.491708 -0.085603,0.898322 -0.256401,1.21913m8.33957 -0.0100889l0 -6.02411 -1.49591 0 0 2.89919c-0.409875,-0.518917 -0.966703,-0.778478 -1.66987,-0.778478 -0.744542,0 -1.31839,0.290337 -1.72103,0.870705 -0.341495,0.49181 -0.512293,1.10662 -0.512293,1.84424 0,0.765026 0.184454,1.38993 0.55326,1.87481 0.409875,0.525949 0.986881,0.788873 1.73142,0.788873 0.628061,0 1.1641,-0.259459 1.60842,-0.778682l0.0410691 0.686353 1.50559 0c-0.0269038,-0.286872 -0.0406614,-0.747804 -0.0406614,-1.3829m-1.70982 -0.0614507c-0.21095,0.389086 -0.523809,0.583833 -0.93827,0.583833 -0.809662,0 -1.21444,-0.590661 -1.21444,-1.77249 0,-1.14046 0.377469,-1.71084 1.13241,-1.71084 0.435047,0 0.765026,0.187817 0.989428,0.563553 0.183741,0.314183 0.275764,0.706836 0.275764,1.17826 0,0.457569 -0.0820362,0.843394 -0.244886,1.15768m5.05975 -5.96266l-1.55736 0 0 1.18835 1.55736 0 0 -1.18835zm-0.0308782 2.23342l-1.49561 0 0 5.17358 1.49561 0 0 -5.17358zm5.46096 0.0101908l-1.39339 3.99552 -1.35253 -3.99552 -1.58794 0 2.09014 5.16339 1.61892 0 2.07934 -5.16339 -1.45454 0zm7.0381 1.22932c-0.382462,-0.915137 -1.14433,-1.37281 -2.28468,-1.37281 -0.867444,0 -1.53005,0.249472 -1.98772,0.747804 -0.457263,0.498739 -0.686353,1.18509 -0.686353,2.05936 0.000101908,0.833305 0.227256,1.47523 0.681665,1.92607 0.453696,0.450741 1.10122,0.676162 1.94095,0.676162 0.669538,0 1.21587,-0.129729 1.6394,-0.389392 0.491912,-0.300324 0.781943,-0.764822 0.870705,-1.39329l-1.45454 0c-0.0751065,0.601055 -0.419862,0.901583 -1.03468,0.901583 -0.410079,0 -0.717537,-0.156939 -0.922474,-0.471122 -0.177524,-0.26649 -0.266083,-0.614813 -0.266083,-1.04517l3.72934 0c0,-0.737511 -0.075616,-1.28394 -0.225523,-1.6392m-3.47324 0.778682c0,-0.375532 0.106087,-0.681257 0.317852,-0.916869 0.211766,-0.235714 0.49823,-0.35352 0.86031,-0.35352 0.717231,0 1.07564,0.423531 1.07564,1.27039l-2.25381 0zm8.46227 -2.02859c-0.0543172,-0.00662404 -0.136761,-0.0101908 -0.246007,-0.0101908 -0.744135,0 -1.27701,0.327941 -1.59802,0.983619l-0.0409672 -0.952843 -1.44445 0c0,0.150213 0.00672595,0.363711 0.0203817,0.640392 0.0137576,0.276477 0.0204836,0.483249 0.0204836,0.619807l0.000101908 3.90319 1.49591 0 0 -2.43836c0,-0.983314 0.447174,-1.47523 1.34203,-1.47523 0.136251,0 0.286872,0.0103947 0.450435,0.0307763l0.000101908 -1.30117zm4.71275 2.42807c-0.198008,-0.102418 -0.679525,-0.245905 -1.44455,-0.430155 -0.662506,-0.157143 -0.993708,-0.389392 -0.993708,-0.696747 0.000101908,-0.191078 0.0851954,-0.338132 0.255994,-0.440448 0.143487,-0.0886603 0.317852,-0.133194 0.522382,-0.133194 0.505567,-0.000101908 0.768593,0.276579 0.789076,0.829738l1.46514 0c-0.0615526,-1.11314 -0.806095,-1.66997 -2.23342,-1.66997 -0.594533,0 -1.08604,0.10945 -1.47543,0.327941 -0.491708,0.273318 -0.737307,0.686353 -0.737307,1.23972 0,0.525847 0.238669,0.915239 0.716823,1.16787 0.170493,0.0887622 0.635297,0.228886 1.39349,0.420066 0.65578,0.163971 0.983314,0.406411 0.983314,0.72732 0,0.211766 -0.0852973,0.379099 -0.255994,0.502001 -0.171104,0.123003 -0.368908,0.184454 -0.59433,0.184454 -0.566814,0 -0.860616,-0.307356 -0.880794,-0.922067l-1.50631 0c0,1.18173 0.771854,1.77239 2.31556,1.77239 0.662302,0 1.20507,-0.112711 1.62901,-0.33803 0.532369,-0.293598 0.798758,-0.744542 0.798758,-1.35243 0.000101908,-0.539401 -0.249472,-0.935621 -0.747702,-1.18846m3.55344 -4.6511l-1.55706 0 0 1.18835 1.55706 0 0 -1.18835zm-0.0309801 2.23342l-1.49551 0 0 5.17358 1.49551 0 0 -5.17358zm4.87713 0l-1.21944 0 0 -1.45495 -1.45495 0.594228 0 0.860718 -0.993301 0 0 0.983416 0.993301 0 0 2.87881c0,0.532777 0.136557,0.90515 0.409773,1.11681 0.239179,0.170798 0.635297,0.256198 1.18856,0.256198 0.348425,0 0.703575,-0.0240504 1.06525,-0.0718454l0 -0.973225c-0.403048,0.0274133 -0.563349,0.0408653 -0.481415,0.0408653 -0.321011,0 -0.52921,-0.0715397 -0.6248,-0.215027 -0.0682786,-0.109144 -0.10252,-0.334565 -0.10252,-0.676162l0.000101908 -2.35643 1.21944 0 0 -0.983416zm4.98892 0.0101908l-1.33164 3.86243 -1.38341 -3.86243 -1.67996 0 2.33574 5.18387 -0.819343 1.91588 1.42397 0 2.93007 -7.09975 -1.47543 0zm10.2226 0l0 0.788873c-0.38929,-0.600954 -0.963136,-0.901583 -1.72103,-0.901583 -0.730785,0 -1.30106,0.256096 -1.71125,0.768287 -0.382054,0.464702 -0.573438,1.07238 -0.573438,1.82375 0.000101908,0.751268 0.187715,1.35925 0.563349,1.82355 0.409875,0.505567 0.98046,0.758198 1.71094,0.758198 0.703677,-0.000101908 1.25327,-0.286872 1.64979,-0.860514l0 0.717027c-0.0207893,0.443811 -0.106087,0.771752 -0.2563,0.983619 -0.184454,0.266287 -0.502204,0.399481 -0.953047,0.399481 -0.676264,0 -1.01776,-0.262924 -1.02428,-0.788873l-1.41388 0 0 0.0819343c0,0.594228 0.273114,1.02785 0.819649,1.30117 0.416703,0.204836 0.952639,0.307356 1.60842,0.307356 0.94948,0 1.6394,-0.245905 2.06966,-0.737613 0.430053,-0.491912 0.645386,-1.24675 0.645386,-2.2641l0 -2.7662c0,-0.184556 0.00998702,-0.662506 0.0308782,-1.43436l-1.44486 0zm-0.306948 3.57545c-0.212173,0.368806 -0.533185,0.55326 -0.963238,0.55326 -0.416601,0 -0.727218,-0.177422 -0.932563,-0.532777 -0.163869,-0.28677 -0.245497,-0.658939 -0.245497,-1.11661 0,-0.464498 0.0851954,-0.843495 0.255994,-1.1372 0.211358,-0.368908 0.529108,-0.55326 0.952639,-0.55326 0.403048,0 0.710097,0.180989 0.921761,0.542968 0.170798,0.2937 0.256401,0.659143 0.256401,1.09623 0,0.471122 -0.0816286,0.85389 -0.245599,1.14739m8.0473 -2.34613c-0.382054,-0.915137 -1.14362,-1.37281 -2.28438,-1.37281 -0.867342,0 -1.53005,0.249472 -1.98731,0.747804 -0.457976,0.498739 -0.686658,1.18509 -0.686658,2.05936 0,0.833305 0.226848,1.47523 0.681257,1.92607 0.454409,0.450741 1.10122,0.676162 1.94135,0.676162 0.669844,0 1.21587,-0.129729 1.6394,-0.389392 0.49181,-0.300324 0.782249,-0.764822 0.871011,-1.39329l-1.45484 0c-0.0751065,0.601055 -0.42027,0.901583 -1.03468,0.901583 -0.410181,0 -0.717231,-0.156939 -0.922169,-0.471122 -0.177932,-0.26649 -0.266388,-0.614813 -0.266388,-1.04517l3.72893 0c0,-0.737511 -0.0752084,-1.28394 -0.225523,-1.6392m-3.47283 0.778682c0,-0.375532 0.105679,-0.681257 0.31775,-0.916869 0.21146,-0.235714 0.498638,-0.35352 0.860718,-0.35352 0.717231,0 1.07564,0.423531 1.07564,1.27039l-2.25411 0zm10.1378 -0.184556c0,-1.27019 -0.628469,-1.90548 -1.8853,-1.90548 -0.682684,0 -1.2497,0.290439 -1.70054,0.870909l-0.0203817 -0.788873 -1.48552 0c0.0273114,0.321011 0.0409672,0.659143 0.0409672,1.01429l0 4.1491 1.49591 0 0 -2.60213c0,-0.409875 0.0647118,-0.754631 0.194441,-1.03478 0.184862,-0.402844 0.481823,-0.604418 0.89129,-0.604418 0.409875,0 0.686658,0.160506 0.830044,0.481517 0.0956919,0.211664 0.143079,0.553159 0.143079,1.02448l0.000101908 2.73532 1.49591 0 0 -3.33994zm6.26043 -1.2549c-0.495275,-0.474689 -1.17337,-0.712034 -2.03409,-0.712034 -0.853788,0 -1.54014,0.239179 -2.05896,0.717129 -0.519427,0.478154 -0.778682,1.14066 -0.778682,1.98772 0.000101908,0.860412 0.249166,1.52801 0.747804,2.0027 0.498638,0.474893 1.18132,0.712136 2.04887,0.712136 0.860718,0 1.54554,-0.239077 2.05427,-0.717231 0.508727,-0.478052 0.763192,-1.14382 0.763192,-1.99761 0.000101908,-0.85389 -0.247332,-1.51792 -0.742402,-1.99282m-1.07095 3.22204c-0.218593,0.403048 -0.55326,0.604418 -1.0041,0.604418 -0.826477,0 -1.23961,-0.60768 -1.23961,-1.82355 0,-1.20894 0.413035,-1.81326 1.23961,-1.81326 0.450843,0 0.78551,0.19811 1.0041,0.594126 0.170798,0.314285 0.2563,0.720594 0.2563,1.21913 0,0.491708 -0.0855011,0.898322 -0.2563,1.21913m11.7258 -1.83384c0,-1.35905 -0.617972,-2.03878 -1.85432,-2.03878 -0.846655,0 -1.46147,0.331406 -1.84434,0.99381 -0.265981,-0.662404 -0.809254,-0.99381 -1.6286,-0.99381 -0.77858,0 -1.35599,0.297267 -1.73132,0.891392l-0.0412729 -0.809356 -1.46473 0c0.0270057,0.68299 0.0405595,1.25673 0.0405595,1.72113l0.000101908 3.44226 1.49591 0 0 -2.85833c0,-0.922067 0.355151,-1.383 1.06515,-1.383 0.635704,0 0.953047,0.45767 0.953047,1.37281l0.000101908 2.86852 1.49591 0 0 -2.82755c0,-0.94255 0.348323,-1.41377 1.04466,-1.41377 0.39622,0 0.669028,0.13992 0.819751,0.420066 0.10252,0.204938 0.153474,0.519121 0.153474,0.94255l0.000101908 2.87871 1.49581 0 0 -3.20665zm3.35034 -4.20036l-1.55736 0 0 1.18835 1.55736 0 0 -1.18835zm-0.0308782 2.23342l-1.49561 0 0 5.17358 1.49561 0 0 -5.17358zm6.51898 3.2681l-1.52689 0c-0.0201779,0.751472 -0.337928,1.1269 -0.952741,1.1269 -0.757791,0 -1.13709,-0.611144 -1.13709,-1.83384 0,-1.20884 0.38929,-1.81336 1.16797,-1.81336 0.587604,0 0.894552,0.34496 0.921863,1.03478l1.48582 0c-0.0546229,-0.65578 -0.310922,-1.14749 -0.768287,-1.47523 -0.409773,-0.300528 -0.953047,-0.450843 -1.62931,-0.450843 -0.853788,0 -1.52292,0.24937 -2.0078,0.747905 -0.484982,0.498638 -0.72732,1.1747 -0.72732,2.02849 0.000101908,0.84696 0.23551,1.50091 0.706734,1.96194 0.471428,0.460931 1.13037,0.69155 1.97733,0.69155 0.682786,0 1.2497,-0.150213 1.70054,-0.450741 0.525949,-0.361978 0.789076,-0.867342 0.789076,-1.51629l0.000101908 -0.0512599z"/>
   <path id="_184120544" class="fil0" d="M82.8743 16.9855c-0.0478969,0 -0.124838,0.0101908 -0.230517,0.0307763 -0.105985,0.0204836 -0.186187,0.0306744 -0.240911,0.0306744 -0.307356,0 -0.511886,-0.0751065 -0.614711,-0.225421 -0.0751065,-0.109144 -0.112507,-0.320909 -0.112507,-0.635093l0 -3.37062 1.15758 0 0 -0.461135 -1.15758 0 0 -1.34203 -0.6248 0.276477 0 1.06555 -1.02459 0 0 0.461135 1.02459 0 0 3.6471c0,0.730989 0.36524,1.09623 1.09613,1.09623 0.184454,0 0.42669,-0.0136557 0.727218,-0.0408653l0.000101908 -0.532777zm4.17427 -4.64101c-0.0888641,-0.0136557 -0.184148,-0.0204836 -0.286974,-0.0204836 -0.696646,0 -1.22586,0.280146 -1.58794,0.840132l-0.0409672 -0.809458 -0.614405 0c-0.00713358,0.184556 -0.00397443,0.437289 0.0100889,0.758198 0.0136557,0.382666 0.0204836,0.635297 0.0204836,0.758096l0 3.65749 0.6248 0 0 -2.92997c0,-1.11335 0.484982,-1.67007 1.45495,-1.67007 0.129831,0 0.26965,0.0138595 0.419862,0.0409672l0.000101908 -0.624902zm4.95866 3.2681l0 -1.53668c0,-0.635297 -0.150621,-1.09623 -0.451148,-1.3831 -0.300528,-0.286872 -0.775115,-0.430257 -1.42407,-0.430257 -0.511886,0 -0.928589,0.109348 -1.2496,0.327737 -0.368908,0.245905 -0.556522,0.611348 -0.563349,1.09623l0.614304 0c0.0683805,-0.635093 0.468167,-0.952843 1.19865,-0.952843 0.840234,0 1.2605,0.444117 1.2605,1.33204 0,0.136557 -0.0036687,0.256096 -0.0100889,0.358412l-0.266796 0c-0.928895,0 -1.61851,0.0786733 -2.06935,0.235816 -0.75137,0.252733 -1.127,0.741078 -1.127,1.46483 0,0.491912 0.180785,0.874374 0.542866,1.14759 0.328247,0.239077 0.748109,0.358616 1.2604,0.358616 0.771548,0 1.34855,-0.283305 1.73142,-0.850527 0.0409672,0.334973 0.0679729,0.584037 0.0819343,0.748007l0.573438 0c-0.0679729,-0.64885 -0.102112,-1.28741 -0.102112,-1.91588m-0.840132 0.850323c-0.232249,0.484982 -0.676264,0.727422 -1.33204,0.727422 -0.348323,0 -0.642023,-0.0921252 -0.880794,-0.276681 -0.266694,-0.198008 -0.399786,-0.467657 -0.399786,-0.809152 0,-0.519121 0.283305,-0.874272 0.850629,-1.06555 0.341189,-0.116074 0.83626,-0.174161 1.48511,-0.174161 0.184862,0 0.355253,0.00682786 0.512293,0.0204836 0.000101908,0.730785 -0.0786733,1.25673 -0.235408,1.57764m7.14062 -2.10023c0,-0.682786 -0.126264,-1.18489 -0.378997,-1.5059 -0.286872,-0.368806 -0.765026,-0.553362 -1.43446,-0.553362 -0.716823,0 -1.28058,0.304095 -1.69035,0.911774l-0.0409672 -0.860514 -0.614813 0c0,0.163971 0.00540114,0.408347 0.0154901,0.732619 0.0103947,0.324374 0.0153882,0.568547 0.0153882,0.732517l0.000101908 3.70865 0.6248 0 0 -2.75581c0,-0.566916 0.116074,-1.02122 0.348323,-1.36282 0.273216,-0.389188 0.683092,-0.583833 1.22952,-0.583833 0.539299,0 0.904844,0.177728 1.09613,0.532777 0.136659,0.252835 0.204938,0.669334 0.204938,1.24991l0 2.91978 0.624902 0 0 -3.16578zm4.84574 0.542968c-0.49181,-0.156939 -0.983212,-0.31398 -1.47502,-0.471326 -0.532777,-0.190976 -0.799267,-0.467556 -0.799267,-0.829738 0,-0.286872 0.133092,-0.508727 0.399481,-0.665869 0.225421,-0.136557 0.492115,-0.20504 0.799165,-0.20504 0.724059,0 1.10295,0.338132 1.1372,1.0145l0.6248 0c-0.0338336,-1.01083 -0.628469,-1.51629 -1.78248,-1.51629 -0.49181,-0.000101908 -0.901277,0.112609 -1.22952,0.33803 -0.382462,0.259662 -0.573438,0.624902 -0.573438,1.09623 0,0.519121 0.266388,0.901379 0.79886,1.14739 0.498638,0.163971 0.997275,0.324578 1.49591,0.481517 0.532777,0.191282 0.79886,0.474791 0.79886,0.850323 0,0.321011 -0.143079,0.577311 -0.429951,0.768287 -0.252733,0.163971 -0.549694,0.246007 -0.891596,0.246007 -0.85389,0 -1.28027,-0.382564 -1.28027,-1.14759l-0.614711 0c0,0.546636 0.177219,0.959773 0.532369,1.23972 0.327941,0.245905 0.771854,0.368806 1.33204,0.368806 0.546433,0 0.997275,-0.119335 1.35212,-0.358412 0.403048,-0.287076 0.604724,-0.68992 0.604724,-1.20894 0,-0.519121 -0.266083,-0.901583 -0.799267,-1.14759m3.25832 -4.78439l-0.625208 0 0 7.40721 0.625208 0 0 -7.40721zm5.70615 5.49133l0 -1.53668c0,-0.635297 -0.150315,-1.09623 -0.450843,-1.3831 -0.300528,-0.286872 -0.775115,-0.430257 -1.42407,-0.430257 -0.512191,0 -0.928997,0.109348 -1.25001,0.327737 -0.368806,0.245905 -0.556522,0.611348 -0.563349,1.09623l0.614813 0c0.067871,-0.635093 0.467657,-0.952843 1.19854,-0.952843 0.840234,0 1.2601,0.444117 1.2601,1.33204 0.000101908,0.136557 -0.00356679,0.256096 -0.0103947,0.358412l-0.266388 0c-0.928997,0 -1.61861,0.0786733 -2.06935,0.235816 -0.750963,0.252733 -1.1267,0.741078 -1.1267,1.46483 0,0.491912 0.180785,0.874374 0.542458,1.14759 0.328349,0.239077 0.748109,0.358616 1.2604,0.358616 0.771956,0 1.34896,-0.283305 1.73142,-0.850527 0.0410691,0.334973 0.0682786,0.584037 0.0819343,0.748007l0.573846 0c-0.0685843,-0.64885 -0.10252,-1.28741 -0.10252,-1.91588m-0.840132 0.850323c-0.232249,0.484982 -0.676264,0.727422 -1.33164,0.727422 -0.348323,0 -0.642023,-0.0921252 -0.8811,-0.276681 -0.266694,-0.198008 -0.399786,-0.467657 -0.399786,-0.809152 0,-0.519121 0.283305,-0.874272 0.850221,-1.06555 0.341903,-0.116074 0.836871,-0.174161 1.48552,-0.174161 0.18476,0 0.355558,0.00682786 0.512293,0.0204836 0,0.730785 -0.0783675,1.25673 -0.23551,1.57764m5.11009 0.522586c-0.047795,0 -0.124736,0.0101908 -0.230822,0.0307763 -0.105985,0.0204836 -0.185881,0.0306744 -0.240911,0.0306744 -0.306948,0 -0.512293,-0.0751065 -0.614405,-0.225421 -0.0754122,-0.109144 -0.112507,-0.320909 -0.112507,-0.635093l0.000101908 -3.37062 1.15717 0 0 -0.461135 -1.15717 0 0 -1.34203 -0.625208 0.276477 0 1.06555 -1.02428 0 0 0.461135 1.02428 0 0 3.6471c0,0.730989 0.36524,1.09623 1.09613,1.09623 0.184454,0 0.42669,-0.0136557 0.727626,-0.0408653l0 -0.532777zm2.27429 -6.86424l-0.747804 0 0 0.778682 0.747804 0 0 -0.778682zm-0.0615526 2.23342l-0.624698 0 0 5.17379 0.624698 0 0 -5.17379zm5.94747 0.655678c-0.437187,-0.505364 -1.04191,-0.757994 -1.81346,-0.757994 -0.764924,0 -1.36608,0.255892 -1.80327,0.768389 -0.416703,0.478154 -0.6248,1.10642 -0.6248,1.8849 0,0.792439 0.201677,1.43793 0.604622,1.93646 0.437289,0.525847 1.04476,0.788873 1.82345,0.788873 0.751472,0 1.34886,-0.269853 1.79287,-0.809458 0.416703,-0.512191 0.625208,-1.15085 0.625208,-1.91588 0,-0.792134 -0.201677,-1.42397 -0.604724,-1.89529m-0.481313 3.42188c-0.314591,0.485186 -0.758198,0.727422 -1.33204,0.727422 -0.58047,0 -1.03141,-0.238873 -1.35243,-0.717129 -0.272911,-0.409875 -0.409468,-0.922067 -0.409468,-1.53688 0,-0.60768 0.139411,-1.10295 0.419862,-1.48542 0.307458,-0.437085 0.754631,-0.655678 1.34203,-0.655678 0.580266,0 1.02785,0.218593 1.34203,0.655678 0.273318,0.382462 0.409875,0.877737 0.409875,1.48542 0,0.601055 -0.140226,1.10999 -0.419862,1.52659m7.00722 -2.06955c0,-0.682786 -0.126264,-1.18489 -0.37859,-1.5059 -0.286872,-0.368806 -0.765026,-0.553362 -1.43487,-0.553362 -0.716823,0 -1.28017,0.304095 -1.69005,0.911774l-0.0409672 -0.860514 -0.614711 0c0,0.163971 0.00499351,0.408347 0.0153882,0.732619 0.0101908,0.324374 0.0151843,0.568547 0.0151843,0.732517l0 3.70865 0.625208 0 0 -2.75581c0,-0.566916 0.115666,-1.02122 0.348323,-1.36282 0.273216,-0.389188 0.682684,-0.583833 1.22912,-0.583833 0.539707,0 0.904946,0.177728 1.09653,0.532777 0.136659,0.252835 0.20453,0.669334 0.20453,1.24991l0.000101908 2.91978 0.6248 0 0 -3.16578zm5.70656 1.24991l0 -1.53668c0,-0.635297 -0.150417,-1.09623 -0.450944,-1.3831 -0.30012,-0.286872 -0.775115,-0.430257 -1.42366,-0.430257 -0.512293,0 -0.928997,0.109348 -1.25001,0.327737 -0.368806,0.245905 -0.556827,0.611348 -0.563349,1.09623l0.614813 0c0.0679729,-0.635093 0.467352,-0.952843 1.19854,-0.952843 0.839929,0 1.25969,0.444117 1.25969,1.33204 0.000101908,0.136557 -0.00315916,0.256096 -0.00998702,0.358412l-0.266388 0c-0.928589,0 -1.61851,0.0786733 -2.06935,0.235816 -0.75137,0.252733 -1.12711,0.741078 -1.12711,1.46483 0,0.491912 0.180887,0.874374 0.542866,1.14759 0.327941,0.239077 0.748109,0.358616 1.2604,0.358616 0.771548,0 1.34896,-0.283305 1.73112,-0.850527 0.0413748,0.334973 0.0686862,0.584037 0.082342,0.748007l0.573846 0c-0.0686862,-0.64885 -0.102927,-1.28741 -0.102927,-1.91588m-0.840132 0.850323c-0.231943,0.484982 -0.675958,0.727422 -1.33164,0.727422 -0.348017,0 -0.642125,-0.0921252 -0.881202,-0.276681 -0.265981,-0.198008 -0.399379,-0.467657 -0.399379,-0.809152 0,-0.519121 0.283305,-0.874272 0.850221,-1.06555 0.341495,-0.116074 0.836566,-0.174161 1.48552,-0.174161 0.184862,0 0.355151,0.00682786 0.512599,0.0204836 0,0.730785 -0.0786733,1.25673 -0.236122,1.57764m3.55049 -6.34166l-0.6248 0 0 7.40721 0.6248 0 0 -7.40721z"/>
   <path id="_184120784" class="fil0" d="M57.4624 12.9239c0.071132,0.00815267 0.143385,0.00896794 0.216759,0.0108023 0.617972,0.0136557 1.04935,-0.315712 1.38483,-0.686557 0.498943,-0.551426 1.6447,-0.87794 3.07274,-0.941939 1.53973,-0.068992 3.55589,0.228988 5.54076,2.09147 0.811394,0.761561 1.82875,1.41418 2.96197,1.38646 0.450537,-0.0110061 0.884768,-0.0882526 1.24532,-0.236224 1.53158,-0.628265 2.49716,-1.94105 2.46516,-3.61968 -0.0330183,-1.72195 -1.2122,-3.15223 -2.79514,-3.57963 -0.337622,-0.0913099 -0.693486,-0.13778 -1.06097,-0.13085 -0.602482,0.0116176 -1.16879,0.164174 -1.66987,0.42455l0 -0.000815267 -0.000713358 0.00132481c-0.494357,0.257115 -1.05485,0.903621 -1.31401,1.12955 -1.10734,0.964766 -3.09108,1.92342 -5.38331,1.96591 -1.13098,0.021095 -2.58491,-0.40743 -3.87914,-0.943162 -0.194441,-0.0771446 -0.407328,-0.117806 -0.629896,-0.113628 -0.235103,0.00458588 -0.45767,0.0592088 -0.657513,0.152964 -0.564368,0.263943 -0.950499,0.841661 -0.937965,1.50488 0.0162034,0.824846 0.643144,1.49387 1.44098,1.58457z"/>
   <path id="_184120760" class="fil0" d="M73.9861 17.6534c-0.286159,-0.0821381 -0.587807,-0.12708 -0.900157,-0.12708 -0.419964,0 -0.82077,0.0804057 -1.18968,0.225421 0,0 -0.011108,0.00407633 -0.0172225,0.00662404 -0.0873355,0.0351584 -0.27179,0.122392 -0.279331,0.125857 -3.92194,1.73285 -7.36787,1.85361 -10.1612,1.31085 -3.99562,-0.776847 -6.66603,-2.8998 -7.45806,-3.63008 -0.208199,-0.191893 -0.735982,-0.746886 -1.69657,-0.746886 -1.2708,0 -2.30048,1.03009 -2.30048,2.30058 0,1.01592 0.658634,1.87746 1.57173,2.18227 0.22909,0.0765332 0.474281,0.11373 0.728747,0.118418 0.343737,0.00652213 0.805687,-0.136048 0.940818,-0.169372 2.99804,-0.740466 5.71838,-0.273828 8.17427,0.175384 4.94724,0.904742 8.39022,3.03014 9.49103,3.78304 0.0755141,0.0516675 0.323865,0.191078 0.390105,0.229498 0.395812,0.228886 1.09827,0.538382 1.74253,0.552955 0.0247637,0.000509542 0.0496294,0.00142672 0.0746988,0.00142672 1.79685,-0.000101908 3.24242,-1.4152 3.24242,-3.21225 0.000101908,-1.4846 -0.994727,-2.73604 -2.35368,-3.12665z"/>
   <path id="_184121144" class="fil0" d="M51.3369 22.7768l0 0.000101908c-0.532064,-0.534815 -1.24889,-0.884666 -2.04673,-0.94785 -0.0855011,-0.00692977 -0.172531,-0.0114137 -0.259866,-0.0114137 -1.79715,0 -3.25393,1.45678 -3.25393,3.25363 0,1.58763 1.1375,2.90877 2.64167,3.19534 0.19811,0.037808 0.40264,0.0582916 0.612265,0.0582916 0.232963,0 0.459811,-0.0248656 0.679117,-0.0714378l0 0.000407633c0.000305725,-0.000203817 0.00101908,-0.000509542 0.00173244,-0.000917175 0.278719,-0.0593107 1.56684,-0.501491 1.65988,-0.528904 3.52898,-1.04283 5.03315,-1.05394 7.50086,-0.674633 -3.80393,-0.956716 -6.25014,-3.0547 -7.14816,-3.88974 -0.129424,-0.120354 -0.386844,-0.38287 -0.386844,-0.38287z"/>
   <path id="_184120688" class="fil0" d="M70.5959 26.5622c-0.239077,-0.0841763 -0.495784,-0.130341 -0.763599,-0.130341 -0.335788,0 -1.05587,0.232861 -1.11264,0.248453 -3.00844,0.829738 -5.66264,0.997581 -7.93367,0.722836 5.04355,1.10173 7.43136,3.03819 7.67798,3.19309 0.38287,0.240606 0.855011,0.416398 1.27304,0.43362 0.0316935,0.0012229 0.0632851,0.00356679 0.0952843,0.00356679 1.27059,0 2.30089,-1.03009 2.30089,-2.30089 0,-1.00288 -0.642125,-1.85545 -1.53729,-2.17034z"/>
   <path id="_184122440" class="fil0" d="M54.6624 32.987c0,-0.000203817 -1.3032,-2.03878 -3.11371,-2.0238 -0.271382,0.00203817 -0.536038,0.0291458 -0.790911,0.083361 -1.71023,0.363507 -2.99325,1.88194 -2.99325,3.70039 0,1.97335 1.51059,3.59288 3.43869,3.76765 0.113628,0.0100889 0.22858,0.0162034 0.345469,0.0162034 0.991161,0 1.89244,-0.381443 2.56728,-1.00492l0 0.000815267c0.00499351,-0.00540114 0.0100889,-0.0104966 0.0150824,-0.0154901 0.0639984,-0.0593107 0.125143,-0.121169 0.184454,-0.18476 0.163563,-0.161117 0.323865,-0.312145 0.481313,-0.455225 1.46218,-1.32552 2.68304,-1.88795 3.66452,-2.04214 0,0 -2.31699,0.0630813 -3.79894,-1.8421z"/>
   <path id="_184122272" class="fil0" d="M63.5804 32.9398c-0.203817,-0.0764313 -0.42455,-0.118316 -0.654659,-0.118316 -0.465925,0 -0.982193,0.220428 -1.28343,0.511682 -0.0628775,0.0610431 -0.12871,0.116074 -0.192709,0.171104 -0.843394,0.725689 -1.65122,1.14545 -2.39862,1.27834 1.29821,-0.0143691 2.09952,0.68034 2.37385,1.01511 0.0423939,0.0514637 0.152047,0.189855 0.240504,0.26863 0.392959,0.349749 0.749944,0.488141 1.2604,0.488141 0.154289,0 0.304502,-0.0190569 0.447989,-0.0546229 0.814248,-0.200556 1.41856,-0.935621 1.41856,-1.81183 0,-0.80049 -0.504039,-1.48307 -1.21189,-1.74824z"/>
   <path id="_184122416" class="fil0" d="M66.0316 3.27442c0,1.80857 -1.46616,3.27452 -3.27442,3.27452 -1.80836,0 -3.27442,-1.46595 -3.27442,-3.27452 0,-1.80847 1.46605,-3.27442 3.27442,-3.27442 1.80826,0 3.27442,1.46595 3.27442,3.27442z"/>
   <path id="_184122200" class="fil0" d="M60.6577 41.678c0,1.21811 -0.979747,2.20744 -2.19419,2.22283l-0.0573744 0c-1.21444,-0.0153882 -2.19419,-1.00471 -2.19419,-2.22283 0,-1.22738 0.995135,-2.22252 2.22283,-2.22252 1.22779,0 2.22283,0.995135 2.22293,2.22252z"/>
  </g>
 </g>
</svg>
